<?xml version="1.0" encoding="UTF-8"?>
<svg id="Layer_1" data-name="Layer 1" xmlns="http://www.w3.org/2000/svg" viewBox="0 0 120 117">
  <defs>
    <style>
      .cls-1 {
        fill: #fff;
        fill-rule: evenodd;
      }
    </style>
  </defs>
  <path class="cls-1" d="M60,0C26.87,0,0,26.85,0,59.98c0,26.5,17.19,48.98,41.03,56.91,3,.55,4.1-1.3,4.1-2.89,0-1.42-.05-5.2-.08-10.2-16.69,3.62-20.21-8.04-20.21-8.04-2.73-6.93-6.66-8.77-6.66-8.77-5.45-3.72,.41-3.65,.41-3.65,6.02,.42,9.19,6.18,9.19,6.18,5.35,9.17,14.04,6.52,17.46,4.98,.55-3.88,2.1-6.52,3.81-8.02-13.32-1.51-27.33-6.66-27.33-29.64,0-6.55,2.34-11.9,6.18-16.1-.62-1.52-2.68-7.62,.59-15.87,0,0,5.04-1.61,16.5,6.15,4.79-1.33,9.92-2,15.02-2.02,5.1,.02,10.23,.69,15.02,2.02,11.45-7.76,16.48-6.15,16.48-6.15,3.27,8.26,1.21,14.36,.6,15.87,3.85,4.19,6.17,9.55,6.17,16.1,0,23.04-14.03,28.11-27.39,29.6,2.15,1.85,4.07,5.51,4.07,11.11,0,8.02-.07,14.49-.07,16.45,0,1.6,1.08,3.47,4.13,2.88,23.82-7.95,41-30.41,41-56.91C120,26.85,93.13,0,60,0Z"/>
</svg>