<?xml version="1.0" encoding="UTF-8"?>
<svg id="Layer_1" data-name="Layer 1" xmlns="http://www.w3.org/2000/svg" viewBox="0 0 82.42 94.26">
  <defs>
    <style>
      .cls-1 {
        fill-rule: evenodd;
      }
    </style>
  </defs>
  <path class="cls-1" d="M59.02,89.27c0-1.97,.07-8.44,.07-16.45,0-5.6-1.92-9.26-4.07-11.11,13.37-1.49,27.39-6.56,27.39-29.6,0-6.55-2.32-11.9-6.17-16.1,.62-1.52,2.68-7.62-.6-15.87,0,0-5.03-1.61-16.48,6.15-4.79-1.33-9.93-2-15.02-2.02-5.1,.02-10.24,.69-15.02,2.02C17.66-1.47,12.63,.14,12.63,.14c-3.26,8.26-1.21,14.36-.59,15.87-3.84,4.19-6.18,9.55-6.18,16.1,0,22.98,14.01,28.13,27.33,29.64-1.71,1.5-3.26,4.14-3.81,8.02-3.42,1.54-12.11,4.18-17.46-4.98,0,0-3.17-5.76-9.19-6.18,0,0-5.86-.08-.41,3.65,0,0,3.93,1.84,6.66,8.77,0,0,3.52,11.67,20.21,8.04,.03,5.01,.08,8.78,.08,10.2,0,1.03-.47,2.15-1.6,2.68,5.22,1.5,10.72,2.31,16.42,2.31s11.23-.82,16.45-2.32c-1.09-.54-1.53-1.66-1.53-2.67Z"/>
</svg>